<svg id="SvgjsSvg1048" width="288" height="288" xmlns="http://www.w3.org/2000/svg" version="1.1" xmlns:xlink="http://www.w3.org/1999/xlink" xmlns:svgjs="http://svgjs.com/svgjs"><defs id="SvgjsDefs1049"></defs><g id="SvgjsG1050"><svg xmlns="http://www.w3.org/2000/svg" viewBox="0 0 48 48" width="288" height="288"><path fill="none" d="M0 0h48v48H0z"></path><path d="M8 31c0 3.87 3.14 7 7 7l-3 3v1h24v-1l-3-3c3.87 0 7-3.13 7-7V10c0-7-7.16-8-16-8S8 3 8 10v21zm16 3c-2.21 0-4-1.79-4-4s1.79-4 4-4 4 1.79 4 4-1.79 4-4 4zm12-14H12V10h24v10z" fill="#2d6cdf" class="color000 svgShape"></path></svg></g></svg>